<svg xmlns="http://www.w3.org/2000/svg" width="72.333" height="50.548" viewBox="0 0 72.333 50.548"><path d="M280.1,312.807c.113-.048.121-.137.152-.208l3.212-6.613c.417-.867.8-1.733,1.267-2.585a.944.944,0,0,0-.1-1.178c-.225-.258-.425-.523-.642-.8l-.2-.258a.079.079,0,0,1-.009-.113h.009l.191-.154.883-.666.171-.12a.208.208,0,0,1,.265,0,1.741,1.741,0,0,1,.184.152l.707.722a1.048,1.048,0,0,1,.306.987,4.737,4.737,0,0,1-.161.529c-.249.651-.562,1.269-.854,1.9l-4.827,9.936-.072.161a.33.33,0,0,1-.33.2h-1.38a.313.313,0,0,1-.312-.225c-.121-.321-.241-.651-.353-.972l-3.632-10.088c-.171-.5-.386-.987-.579-1.484a1.819,1.819,0,0,0-.883-.98c-.152-.089-.312-.152-.473-.232a.669.669,0,0,1-.273-.208.159.159,0,0,1,0-.161.145.145,0,0,1,.137-.089h3.507a.266.266,0,0,1,.208.113.19.19,0,0,1,.009.271.02.02,0,0,1-.009.009,1.786,1.786,0,0,1-.224.217.644.644,0,0,0-.234.867l3.091,7.921c.386.978.8,1.967,1.147,2.946A1.827,1.827,0,0,0,280.1,312.807Z" transform="translate(-234.035 -264.243)"/><path d="M193.64,305.306a5.464,5.464,0,0,0-3.388-3.948,9.092,9.092,0,0,0-2.79-.659c-1.39-.111-2.778-.111-3.828-.12-1.477,0-2.609.072-3.741.056a.608.608,0,0,0-.137,0,.217.217,0,0,0-.2.227.21.21,0,0,0,.038.109.635.635,0,0,0,.256.232l.289.121a.722.722,0,0,1,.41.49,1.587,1.587,0,0,1,0,.441v11.324a1.928,1.928,0,0,1,0,.314.751.751,0,0,1-.5.649l-.28.137a.589.589,0,0,0-.2.193.217.217,0,0,0,.06.3.208.208,0,0,0,.133.036,1.557,1.557,0,0,0,.282,0,6.845,6.845,0,0,1,1.212,0h3.956a11.485,11.485,0,0,0,2.175-.184,8.275,8.275,0,0,0,3.828-1.708,6.857,6.857,0,0,0,2.616-4.735A9.4,9.4,0,0,0,193.64,305.306Zm-1.976,3.355a6.73,6.73,0,0,1-.393,1.831,5.5,5.5,0,0,1-3.852,3.54,7.7,7.7,0,0,1-1.95.289,12.673,12.673,0,0,1-2.529-.154c-.464-.08-.393,0-.393-.464v-11.71c0-.377,0-.386.386-.434a16.061,16.061,0,0,1,3.29-.128,7.925,7.925,0,0,1,1.933.377,5.013,5.013,0,0,1,3.415,3.989A10.4,10.4,0,0,1,191.664,308.662Z" transform="translate(-157.068 -264.672)"/><path d="M95.486,314.113a.947.947,0,0,0-.321-.208c-.184-.1-.371-.184-.546-.289a1.6,1.6,0,0,1-.714-.8c-.1-.232-.21-.464-.306-.7L88.341,299.98c-.128-.3-.087-.282-.432-.282h-.065a.29.29,0,0,0-.342.208c-.184.442-.386.876-.579,1.31q-1.986,4.5-4.016,9c-.377.854-.755,1.694-1.124,2.544a1.766,1.766,0,0,1-.8.883l-.434.217a2.126,2.126,0,0,0-.271.154.644.644,0,0,0-.145.152.145.145,0,0,0,.05.2.154.154,0,0,0,.046.019h2.7a.321.321,0,0,0,.254-.376.171.171,0,0,0-.014-.05.854.854,0,0,0-.087-.154.8.8,0,0,1-.091-.762l.1-.258c.442-1.05.876-2.093,1.317-3.137a1.186,1.186,0,0,0,.048-.13.236.236,0,0,1,.258-.184h5.7a.171.171,0,0,1,.161.1l.065.13c.464,1.067.922,2.143,1.388,3.21a1.463,1.463,0,0,1,.089.256.637.637,0,0,1-.225.683,2.2,2.2,0,0,0-.256.232.191.191,0,0,0-.01.272l.01.009a.357.357,0,0,0,.241.13,1.065,1.065,0,0,0,.208,0h3.267a.171.171,0,0,0,.137-.089A.225.225,0,0,0,95.486,314.113ZM90.021,308.5h-5.1a.537.537,0,0,1,0-.128c.844-2.015,1.677-4.014,2.529-6.069a.3.3,0,0,1,.137.193q1.045,2.408,2.078,4.815c.12.282.249.57.369.854a.55.55,0,0,1,.08.256.161.161,0,0,1-.12.1Z" transform="translate(-74.628 -263.935)"/><path d="M364.665,314.065a.447.447,0,0,0-.225-.208l-.464-.23a2.029,2.029,0,0,1-.98-1.036c-1.8-4.213-3.62-8.41-5.433-12.656-.2-.449-.089-.377-.61-.386h-.065a.171.171,0,0,0-.171.106l-.089.191-2.582,5.927-3.056,6.857a1.82,1.82,0,0,1-.854.948l-.464.232a.787.787,0,0,0-.289.193.188.188,0,0,0-.056.191c0,.08.087.1.161.106a1.5,1.5,0,0,0,.171,0h2.256a1.4,1.4,0,0,0,.171,0,.316.316,0,0,0,.273-.341.324.324,0,0,0-.017-.07,1.343,1.343,0,0,0-.1-.171.8.8,0,0,1-.08-.739l.12-.321.683-1.605c.224-.529.449-1.059.666-1.605a.225.225,0,0,1,.241-.16h5.618a.21.21,0,0,1,.232.171v.1c.458,1.036.907,2.08,1.366,3.123a1.141,1.141,0,0,1,.1.289.642.642,0,0,1-.234.738,1.643,1.643,0,0,0-.232.217.2.2,0,0,0,0,.3.512.512,0,0,0,.386.121h3.21a.7.7,0,0,0,.171,0,.154.154,0,0,0,.215-.041.157.157,0,0,0-.044-.23Zm-5.5-5.666H354.1a.535.535,0,0,1,0-.128c.8-1.991,1.661-4.013,2.495-5.976,0,0,0-.048.065-.08.171.28,2.561,5.883,2.625,6.147A.131.131,0,0,1,359.169,308.4Z" transform="translate(-297.868 -263.816)"/><path d="M114.854,98.5h0a25.659,25.659,0,0,0,1.025-2.464c.386-.113,2.049-.464,4.455,1.26-.342-1.187-1.412-2.455-3.948-2.809a20.9,20.9,0,0,0,.8-4.2c-8.57,21.565-28.026,21.67-38.524,18.547-18.882-5.5-30.664.8-30.664.8,17.912-3.007,26.218,2.271,38.338,2.889a45.638,45.638,0,0,0,7.833-.232h-.113a6.705,6.705,0,0,1,1.334,4.013c.328-.434,1.347-1.653.289-4.206h0a31.758,31.758,0,0,0,4.429-1.031h0s1.357.8,1.952,4.2a4.486,4.486,0,0,0-.659-4.631h0a26.124,26.124,0,0,0,3.289-1.445h0a7.793,7.793,0,0,1,3.21,3.876c1.05-2.584-1.685-4.767-1.685-4.767h0a23.584,23.584,0,0,0,3.145-2.334h0a4.952,4.952,0,0,1,2.785,4.39c1.453-3.171-1.83-5.346-1.83-5.346h0c.249-.249.483-.5.715-.755h0a5.2,5.2,0,0,1,4.631,2.192,4.817,4.817,0,0,0-2.969-4.238h0a24.323,24.323,0,0,0,1.668-2.657c3.034-.321,4.014,1.549,4.206,2.006C118.906,98.693,114.854,98.5,114.854,98.5Z" transform="translate(-48 -90.29)"/></svg>